<?xml version="1.0" encoding="UTF-8"?>
<!DOCTYPE svg PUBLIC "-//W3C//DTD SVG 1.1//EN" "http://www.w3.org/Graphics/SVG/1.1/DTD/svg11.dtd">
<svg xmlns="http://www.w3.org/2000/svg" version="1.1" width="50px" height="50px" style="shape-rendering:geometricPrecision; text-rendering:geometricPrecision; image-rendering:optimizeQuality; fill-rule:evenodd; clip-rule:evenodd" xmlns:xlink="http://www.w3.org/1999/xlink">
<g><path style="opacity:0.614" fill="#000000" d="M 17.5,1.5 C 41.1541,0.318958 50.6541,11.319 46,34.5C 38.7573,46.8068 28.2573,50.6402 14.5,46C 2.19317,38.7573 -1.64016,28.2573 3,14.5C 6.16246,8.16411 10.9958,3.83077 17.5,1.5 Z M 18.5,4.5 C 36.9488,3.44852 45.4488,12.1152 44,30.5C 38.1981,42.9824 28.6981,47.1491 15.5,43C 4.9871,36.4639 1.82043,27.2972 6,15.5C 9.1476,10.5094 13.3143,6.84275 18.5,4.5 Z"/></g>
<g><path style="opacity:0.765" fill="#000000" d="M 13.5,17.5 C 15.5,17.5 17.5,17.5 19.5,17.5C 19.5,19.5 19.5,21.5 19.5,23.5C 17.5,23.5 15.5,23.5 13.5,23.5C 13.5,21.5 13.5,19.5 13.5,17.5 Z"/></g>
<g><path style="opacity:0.765" fill="#000000" d="M 29.5,17.5 C 31.5,17.5 33.5,17.5 35.5,17.5C 35.5,19.5 35.5,21.5 35.5,23.5C 33.5,23.5 31.5,23.5 29.5,23.5C 29.5,21.5 29.5,19.5 29.5,17.5 Z"/></g>
<g><path style="opacity:0.62" fill="#000000" d="M 10.5,28.5 C 11.552,28.3505 12.552,28.5172 13.5,29C 20.8333,36.3333 28.1667,36.3333 35.5,29C 36.448,28.5172 37.448,28.3505 38.5,28.5C 36.2588,34.9698 31.5921,37.9698 24.5,37.5C 17.4079,37.9698 12.7412,34.9698 10.5,28.5 Z"/></g>
</svg>
