<?xml version="1.0" encoding="UTF-8"?>
<!DOCTYPE svg PUBLIC "-//W3C//DTD SVG 1.1//EN" "http://www.w3.org/Graphics/SVG/1.1/DTD/svg11.dtd">
<svg xmlns="http://www.w3.org/2000/svg" version="1.1" width="64px" height="64px" style="shape-rendering:geometricPrecision; text-rendering:geometricPrecision; image-rendering:optimizeQuality; fill-rule:evenodd; clip-rule:evenodd" xmlns:xlink="http://www.w3.org/1999/xlink">
<g><path style="opacity:0.674" fill="#000000" d="M 25.5,2.5 C 49.6432,1.80936 61.1432,13.476 60,37.5C 54.0525,55.895 41.5525,63.0617 22.5,59C 7.40282,52.9867 0.902819,41.82 3,25.5C 6.01513,13.3193 13.5151,5.65262 25.5,2.5 Z M 24.5,6.5 C 39.779,4.30225 50.279,10.3022 56,24.5C 58.1253,33.6406 56.1253,41.6406 50,48.5C 48.3219,39.1529 42.8219,33.3196 33.5,31C 41.6788,27.9561 43.6788,22.4561 39.5,14.5C 33.7034,9.13433 28.2034,9.46766 23,15.5C 19.8271,22.981 21.9937,28.1477 29.5,31C 20.1781,33.3196 14.6781,39.1529 13,48.5C 1.26133,30.2179 5.09466,16.2179 24.5,6.5 Z M 29.5,14.5 C 35.1772,14.347 38.0105,17.0137 38,22.5C 36.2871,27.038 33.1205,28.538 28.5,27C 23.4602,22.4942 23.7936,18.3276 29.5,14.5 Z M 26.5,35.5 C 39.6322,33.977 45.9655,39.6437 45.5,52.5C 41.3835,55.6487 36.7169,56.982 31.5,56.5C 26.2831,56.982 21.6165,55.6487 17.5,52.5C 16.5093,44.8004 19.5093,39.1337 26.5,35.5 Z"/></g>
</svg>
