<svg width="120" height="27" viewBox="0 0 307 60" fill="none" xmlns="http://www.w3.org/2000/svg">
<path d="M1.9635 2.34H15.6825C17.6375 2.34 19.38 2.748 20.91 3.564C22.44 4.38 23.647 5.5615 24.531 7.1085C25.432 8.6385 25.8825 10.466 25.8825 12.591C25.8825 14.716 25.5 16.4585 24.735 17.8185C23.987 19.1615 23.086 20.173 22.032 20.853C20.978 21.516 20.0005 21.9155 19.0995 22.0515L27.285 36H18.717L11.424 22.638H9.588V36H1.9635V2.34ZM9.588 17.3595H12.954C14.314 17.3595 15.504 17.028 16.524 16.365C17.544 15.702 18.054 14.529 18.054 12.846C18.054 11.163 17.5525 9.9985 16.5495 9.3525C15.5465 8.6895 14.365 8.358 13.005 8.358H9.588V17.3595ZM32.2981 2.34H53.7946V9.021H39.8971V15.8805H53.6671V22.3575H39.8971V29.319H53.7946V36H32.2981V2.34ZM66.6048 9.327L67.1658 9.429V36H59.5413V2.34H69.9453L83.5878 28.86L83.0268 28.962V2.34H90.6513V36H80.1963L66.6048 9.327ZM102.67 9.021H94.6373V2.34H118.301V9.021H110.294V36H102.67V9.021ZM122.395 2.34H143.891V9.021H129.994V15.8805H143.764V22.3575H129.994V29.319H143.891V36H122.395V2.34ZM149.485 2.34H163.204C165.159 2.34 166.901 2.748 168.431 3.564C169.961 4.38 171.168 5.5615 172.052 7.1085C172.953 8.6385 173.404 10.466 173.404 12.591C173.404 14.716 173.021 16.4585 172.256 17.8185C171.508 19.1615 170.607 20.173 169.553 20.853C168.499 21.516 167.522 21.9155 166.621 22.0515L174.806 36H166.238L158.945 22.638H157.109V36H149.485V2.34ZM157.109 17.3595H160.475C161.835 17.3595 163.025 17.028 164.045 16.365C165.065 15.702 165.575 14.529 165.575 12.846C165.575 11.163 165.074 9.9985 164.071 9.3525C163.068 8.6895 161.886 8.358 160.526 8.358H157.109V17.3595ZM192.085 1.728C194.176 1.728 196.004 1.9575 197.568 2.4165C199.132 2.8755 200.39 3.36 201.342 3.87C202.294 4.38 202.872 4.72 203.076 4.89L199.404 11.0355C199.132 10.8315 198.664 10.534 198.001 10.143C197.355 9.752 196.582 9.4035 195.681 9.0975C194.797 8.7915 193.87 8.6385 192.901 8.6385C191.592 8.6385 190.53 8.8765 189.714 9.3525C188.915 9.8115 188.515 10.5 188.515 11.418C188.515 12.047 188.728 12.6165 189.153 13.1265C189.595 13.6195 190.258 14.0955 191.142 14.5545C192.043 14.9965 193.182 15.481 194.559 16.008C195.817 16.467 196.998 17.011 198.103 17.64C199.208 18.269 200.177 19.017 201.01 19.884C201.86 20.734 202.532 21.72 203.025 22.842C203.518 23.964 203.764 25.239 203.764 26.667C203.764 28.367 203.416 29.846 202.719 31.104C202.022 32.345 201.07 33.3735 199.863 34.1895C198.673 35.0055 197.313 35.609 195.783 36C194.27 36.408 192.697 36.612 191.065 36.612C188.753 36.612 186.679 36.3485 184.843 35.8215C183.024 35.2945 181.554 34.725 180.432 34.113C179.31 33.501 178.638 33.093 178.417 32.889L182.217 26.4885C182.421 26.6415 182.812 26.888 183.39 27.228C183.985 27.568 184.707 27.925 185.557 28.299C186.407 28.656 187.308 28.962 188.26 29.217C189.229 29.472 190.181 29.5995 191.116 29.5995C192.68 29.5995 193.853 29.302 194.635 28.707C195.417 28.095 195.808 27.296 195.808 26.31C195.808 25.579 195.562 24.9245 195.069 24.3465C194.576 23.7685 193.836 23.2245 192.85 22.7145C191.864 22.1875 190.632 21.635 189.153 21.057C187.674 20.462 186.288 19.7395 184.996 18.8895C183.721 18.0395 182.684 16.977 181.885 15.702C181.086 14.427 180.687 12.846 180.687 10.959C180.687 9.072 181.214 7.44 182.268 6.063C183.339 4.669 184.741 3.598 186.475 2.85C188.226 2.102 190.096 1.728 192.085 1.728Z" fill="black"/>
<path d="M292.382 1.728C294.473 1.728 296.301 1.9575 297.865 2.4165C299.429 2.8755 300.687 3.36 301.639 3.87C302.591 4.38 303.169 4.72 303.373 4.89L299.701 11.0355C299.429 10.8315 298.961 10.534 298.298 10.143C297.652 9.752 296.879 9.4035 295.978 9.0975C295.094 8.7915 294.167 8.6385 293.198 8.6385C291.889 8.6385 290.827 8.8765 290.011 9.3525C289.212 9.8115 288.812 10.5 288.812 11.418C288.812 12.047 289.025 12.6165 289.45 13.1265C289.892 13.6195 290.555 14.0955 291.439 14.5545C292.34 14.9965 293.479 15.481 294.856 16.008C296.114 16.467 297.295 17.011 298.4 17.64C299.505 18.269 300.474 19.017 301.307 19.884C302.157 20.734 302.829 21.72 303.322 22.842C303.815 23.964 304.061 25.239 304.061 26.667C304.061 28.367 303.713 29.846 303.016 31.104C302.319 32.345 301.367 33.3735 300.16 34.1895C298.97 35.0055 297.61 35.609 296.08 36C294.567 36.408 292.994 36.612 291.362 36.612C289.05 36.612 286.976 36.3485 285.14 35.8215C283.321 35.2945 281.851 34.725 280.729 34.113C279.607 33.501 278.935 33.093 278.714 32.889L282.514 26.4885C282.718 26.6415 283.109 26.888 283.687 27.228C284.282 27.568 285.004 27.925 285.854 28.299C286.704 28.656 287.605 28.962 288.557 29.217C289.526 29.472 290.478 29.5995 291.413 29.5995C292.977 29.5995 294.15 29.302 294.932 28.707C295.714 28.095 296.105 27.296 296.105 26.31C296.105 25.579 295.859 24.9245 295.366 24.3465C294.873 23.7685 294.133 23.2245 293.147 22.7145C292.161 22.1875 290.929 21.635 289.45 21.057C287.971 20.462 286.585 19.7395 285.293 18.8895C284.018 18.0395 282.981 16.977 282.182 15.702C281.383 14.427 280.984 12.846 280.984 10.959C280.984 9.072 281.511 7.44 282.565 6.063C283.636 4.669 285.038 3.598 286.772 2.85C288.523 2.102 290.393 1.728 292.382 1.728Z" fill="black"/>
<path d="M251.5 0C239.455 0 229.168 7.464 225 18C229.168 28.536 239.455 36 251.5 36C263.545 36 273.832 28.536 278 18C273.832 7.464 263.545 0 251.5 0ZM251.5 30C244.851 30 239.455 24.624 239.455 18C239.455 11.376 244.851 6 251.5 6C258.149 6 263.545 11.376 263.545 18C263.545 24.624 258.149 30 251.5 30ZM251.5 10.8C247.501 10.8 244.273 14.016 244.273 18C244.273 21.984 247.501 25.2 251.5 25.2C255.499 25.2 258.727 21.984 258.727 18C258.727 14.016 255.499 10.8 251.5 10.8Z" fill="#55ACEE"/>
<path d="M83.57 56.69C83.5633 56.7767 83.5267 56.85 83.46 56.91C83.4 56.97 83.33 57 83.25 57C83.1567 57 83.08 56.97 83.02 56.91C82.9667 56.85 82.94 56.7767 82.94 56.69V50.31C82.94 50.2233 82.97 50.15 83.03 50.09C83.09 50.03 83.1667 50 83.26 50C83.34 50 83.41 50.03 83.47 50.09C83.5367 50.15 83.57 50.2233 83.57 50.31V56.69ZM98.56 50C98.6467 50 98.7133 50.0267 98.76 50.08C98.8133 50.1333 98.84 50.2 98.84 50.28V56.68C98.84 56.78 98.8067 56.86 98.74 56.92C98.68 56.9733 98.61 57 98.53 57C98.49 57 98.4467 56.9933 98.4 56.98C98.3533 56.96 98.3167 56.9333 98.29 56.9L93.83 50.89L94 50.8V56.73C94 56.8033 93.9733 56.8667 93.92 56.92C93.8667 56.9733 93.8 57 93.72 57C93.6333 57 93.5633 56.9733 93.51 56.92C93.4633 56.8667 93.44 56.8033 93.44 56.73V50.3C93.44 50.2 93.47 50.1267 93.53 50.08C93.59 50.0267 93.6567 50 93.73 50C93.77 50 93.8133 50.01 93.86 50.03C93.9067 50.0433 93.9433 50.07 93.97 50.11L98.38 56.05L98.28 56.23V50.28C98.28 50.2 98.3067 50.1333 98.36 50.08C98.42 50.0267 98.4867 50 98.56 50ZM110.645 57.1C110.139 57.1067 109.699 57.0267 109.325 56.86C108.952 56.6933 108.595 56.4433 108.255 56.11C108.222 56.0833 108.192 56.05 108.165 56.01C108.145 55.97 108.135 55.9233 108.135 55.87C108.135 55.79 108.165 55.7167 108.225 55.65C108.292 55.5833 108.365 55.55 108.445 55.55C108.525 55.55 108.599 55.5833 108.665 55.65C108.925 55.93 109.219 56.1433 109.545 56.29C109.879 56.4367 110.235 56.51 110.615 56.51C110.935 56.51 111.219 56.46 111.465 56.36C111.719 56.26 111.919 56.1167 112.065 55.93C112.212 55.7433 112.285 55.5267 112.285 55.28C112.285 54.9733 112.202 54.7267 112.035 54.54C111.869 54.3467 111.649 54.19 111.375 54.07C111.102 53.9433 110.799 53.83 110.465 53.73C110.192 53.65 109.932 53.56 109.685 53.46C109.439 53.3533 109.219 53.2267 109.025 53.08C108.832 52.9267 108.682 52.74 108.575 52.52C108.469 52.3 108.415 52.0333 108.415 51.72C108.415 51.3667 108.509 51.0533 108.695 50.78C108.882 50.5067 109.145 50.2933 109.485 50.14C109.832 49.98 110.232 49.9 110.685 49.9C111.079 49.9 111.455 49.9667 111.815 50.1C112.182 50.2333 112.472 50.43 112.685 50.69C112.785 50.7967 112.835 50.8933 112.835 50.98C112.835 51.0467 112.802 51.1133 112.735 51.18C112.669 51.2467 112.595 51.28 112.515 51.28C112.449 51.28 112.392 51.2567 112.345 51.21C112.232 51.07 112.089 50.9467 111.915 50.84C111.742 50.7267 111.549 50.64 111.335 50.58C111.129 50.52 110.912 50.49 110.685 50.49C110.372 50.49 110.089 50.54 109.835 50.64C109.589 50.7333 109.392 50.87 109.245 51.05C109.105 51.23 109.035 51.4467 109.035 51.7C109.035 51.98 109.115 52.21 109.275 52.39C109.435 52.57 109.645 52.72 109.905 52.84C110.165 52.9533 110.442 53.06 110.735 53.16C111.022 53.24 111.295 53.3333 111.555 53.44C111.822 53.54 112.055 53.6667 112.255 53.82C112.462 53.9733 112.622 54.1667 112.735 54.4C112.855 54.6333 112.915 54.9267 112.915 55.28C112.915 55.62 112.819 55.9267 112.625 56.2C112.432 56.4733 112.165 56.69 111.825 56.85C111.492 57.01 111.099 57.0933 110.645 57.1ZM125.001 50C125.374 50 125.704 50.0867 125.991 50.26C126.277 50.4267 126.504 50.66 126.671 50.96C126.837 51.26 126.921 51.6033 126.921 51.99C126.921 52.3767 126.837 52.7267 126.671 53.04C126.504 53.3467 126.277 53.59 125.991 53.77C125.704 53.95 125.374 54.04 125.001 54.04H122.881L122.931 53.94V56.7C122.931 56.78 122.901 56.85 122.841 56.91C122.781 56.97 122.711 57 122.631 57C122.537 57 122.464 56.97 122.411 56.91C122.357 56.85 122.331 56.78 122.331 56.7V50.3C122.331 50.22 122.361 50.15 122.421 50.09C122.481 50.03 122.551 50 122.631 50H125.001ZM125.001 53.46C125.261 53.46 125.487 53.3967 125.681 53.27C125.874 53.1367 126.024 52.96 126.131 52.74C126.244 52.5133 126.301 52.2633 126.301 51.99C126.301 51.7167 126.244 51.4767 126.131 51.27C126.024 51.0567 125.874 50.89 125.681 50.77C125.487 50.65 125.261 50.59 125.001 50.59H122.881L122.931 50.5V53.52L122.871 53.46H125.001ZM136.588 50H140.258C140.338 50 140.408 50.03 140.468 50.09C140.528 50.1433 140.558 50.2133 140.558 50.3C140.558 50.3867 140.528 50.4567 140.468 50.51C140.408 50.5633 140.338 50.59 140.258 50.59H136.818L136.918 50.42V53.23L136.808 53.1H139.808C139.888 53.1 139.958 53.13 140.018 53.19C140.078 53.25 140.108 53.32 140.108 53.4C140.108 53.4867 140.078 53.5567 140.018 53.61C139.958 53.6633 139.888 53.69 139.808 53.69H136.828L136.918 53.59V56.47L136.868 56.41H140.258C140.338 56.41 140.408 56.44 140.468 56.5C140.528 56.56 140.558 56.63 140.558 56.71C140.558 56.7967 140.528 56.8667 140.468 56.92C140.408 56.9733 140.338 57 140.258 57H136.588C136.508 57 136.438 56.97 136.378 56.91C136.318 56.85 136.288 56.78 136.288 56.7V50.3C136.288 50.22 136.318 50.15 136.378 50.09C136.438 50.03 136.508 50 136.588 50ZM155.081 50.52C155.161 50.5733 155.208 50.6433 155.221 50.73C155.235 50.81 155.215 50.89 155.161 50.97C155.115 51.03 155.055 51.0633 154.981 51.07C154.908 51.0767 154.838 51.0633 154.771 51.03C154.518 50.8633 154.245 50.7333 153.951 50.64C153.665 50.5467 153.355 50.5 153.021 50.5C152.615 50.5 152.235 50.5733 151.881 50.72C151.535 50.86 151.231 51.0667 150.971 51.34C150.711 51.6067 150.508 51.9233 150.361 52.29C150.221 52.6567 150.151 53.06 150.151 53.5C150.151 53.9533 150.225 54.3667 150.371 54.74C150.518 55.1067 150.721 55.4233 150.981 55.69C151.248 55.9567 151.555 56.16 151.901 56.3C152.248 56.44 152.621 56.51 153.021 56.51C153.348 56.51 153.655 56.4633 153.941 56.37C154.235 56.2767 154.508 56.15 154.761 55.99C154.828 55.95 154.898 55.9367 154.971 55.95C155.051 55.9567 155.115 55.9933 155.161 56.06C155.221 56.1333 155.241 56.2133 155.221 56.3C155.208 56.38 155.165 56.4433 155.091 56.49C154.925 56.5967 154.728 56.6967 154.501 56.79C154.275 56.8833 154.035 56.9567 153.781 57.01C153.528 57.07 153.275 57.1 153.021 57.1C152.541 57.1 152.091 57.0133 151.671 56.84C151.251 56.6667 150.878 56.4233 150.551 56.11C150.225 55.79 149.968 55.41 149.781 54.97C149.601 54.53 149.511 54.04 149.511 53.5C149.511 52.98 149.601 52.5033 149.781 52.07C149.961 51.63 150.211 51.25 150.531 50.93C150.851 50.61 151.225 50.36 151.651 50.18C152.078 50 152.535 49.91 153.021 49.91C153.401 49.91 153.768 49.9633 154.121 50.07C154.475 50.1767 154.795 50.3267 155.081 50.52ZM166.584 57C166.491 57 166.414 56.97 166.354 56.91C166.301 56.85 166.274 56.78 166.274 56.7V50.33H166.894V56.7C166.894 56.78 166.864 56.85 166.804 56.91C166.744 56.97 166.671 57 166.584 57ZM164.204 50.57C164.124 50.57 164.054 50.5433 163.994 50.49C163.934 50.4367 163.904 50.3667 163.904 50.28C163.904 50.2 163.934 50.1333 163.994 50.08C164.054 50.0267 164.124 50 164.204 50H168.964C169.044 50 169.114 50.0267 169.174 50.08C169.234 50.1333 169.264 50.2033 169.264 50.29C169.264 50.3767 169.234 50.4467 169.174 50.5C169.114 50.5467 169.044 50.57 168.964 50.57H164.204ZM179.17 56.69C179.163 56.7767 179.126 56.85 179.06 56.91C179 56.97 178.93 57 178.85 57C178.756 57 178.68 56.97 178.62 56.91C178.566 56.85 178.54 56.7767 178.54 56.69V50.31C178.54 50.2233 178.57 50.15 178.63 50.09C178.69 50.03 178.766 50 178.86 50C178.94 50 179.01 50.03 179.07 50.09C179.136 50.15 179.17 50.2233 179.17 50.31V56.69ZM195.28 53.5C195.28 54.0267 195.196 54.51 195.03 54.95C194.87 55.3833 194.64 55.7633 194.34 56.09C194.04 56.41 193.683 56.66 193.27 56.84C192.863 57.0133 192.416 57.1 191.93 57.1C191.443 57.1 190.993 57.0133 190.58 56.84C190.173 56.66 189.82 56.41 189.52 56.09C189.22 55.7633 188.986 55.3833 188.82 54.95C188.66 54.51 188.58 54.0267 188.58 53.5C188.58 52.9733 188.66 52.4933 188.82 52.06C188.986 51.62 189.22 51.24 189.52 50.92C189.82 50.5933 190.173 50.3433 190.58 50.17C190.993 49.99 191.443 49.9 191.93 49.9C192.416 49.9 192.863 49.99 193.27 50.17C193.683 50.3433 194.04 50.5933 194.34 50.92C194.64 51.24 194.87 51.62 195.03 52.06C195.196 52.4933 195.28 52.9733 195.28 53.5ZM194.64 53.5C194.64 52.9067 194.523 52.3867 194.29 51.94C194.063 51.4867 193.746 51.1333 193.34 50.88C192.933 50.6267 192.463 50.5 191.93 50.5C191.403 50.5 190.933 50.6267 190.52 50.88C190.113 51.1333 189.793 51.4867 189.56 51.94C189.333 52.3867 189.22 52.9067 189.22 53.5C189.22 54.0933 189.333 54.6167 189.56 55.07C189.793 55.5167 190.113 55.8667 190.52 56.12C190.933 56.3733 191.403 56.5 191.93 56.5C192.463 56.5 192.933 56.3733 193.34 56.12C193.746 55.8667 194.063 55.5167 194.29 55.07C194.523 54.6167 194.64 54.0933 194.64 53.5ZM209.816 50C209.903 50 209.969 50.0267 210.016 50.08C210.069 50.1333 210.096 50.2 210.096 50.28V56.68C210.096 56.78 210.063 56.86 209.996 56.92C209.936 56.9733 209.866 57 209.786 57C209.746 57 209.703 56.9933 209.656 56.98C209.609 56.96 209.573 56.9333 209.546 56.9L205.086 50.89L205.256 50.8V56.73C205.256 56.8033 205.229 56.8667 205.176 56.92C205.123 56.9733 205.056 57 204.976 57C204.889 57 204.819 56.9733 204.766 56.92C204.719 56.8667 204.696 56.8033 204.696 56.73V50.3C204.696 50.2 204.726 50.1267 204.786 50.08C204.846 50.0267 204.913 50 204.986 50C205.026 50 205.069 50.01 205.116 50.03C205.163 50.0433 205.199 50.07 205.226 50.11L209.636 56.05L209.536 56.23V50.28C209.536 50.2 209.563 50.1333 209.616 50.08C209.676 50.0267 209.743 50 209.816 50ZM221.901 57.1C221.395 57.1067 220.955 57.0267 220.581 56.86C220.208 56.6933 219.851 56.4433 219.511 56.11C219.478 56.0833 219.448 56.05 219.421 56.01C219.401 55.97 219.391 55.9233 219.391 55.87C219.391 55.79 219.421 55.7167 219.481 55.65C219.548 55.5833 219.621 55.55 219.701 55.55C219.781 55.55 219.855 55.5833 219.921 55.65C220.181 55.93 220.475 56.1433 220.801 56.29C221.135 56.4367 221.491 56.51 221.871 56.51C222.191 56.51 222.475 56.46 222.721 56.36C222.975 56.26 223.175 56.1167 223.321 55.93C223.468 55.7433 223.541 55.5267 223.541 55.28C223.541 54.9733 223.458 54.7267 223.291 54.54C223.125 54.3467 222.905 54.19 222.631 54.07C222.358 53.9433 222.055 53.83 221.721 53.73C221.448 53.65 221.188 53.56 220.941 53.46C220.695 53.3533 220.475 53.2267 220.281 53.08C220.088 52.9267 219.938 52.74 219.831 52.52C219.725 52.3 219.671 52.0333 219.671 51.72C219.671 51.3667 219.765 51.0533 219.951 50.78C220.138 50.5067 220.401 50.2933 220.741 50.14C221.088 49.98 221.488 49.9 221.941 49.9C222.335 49.9 222.711 49.9667 223.071 50.1C223.438 50.2333 223.728 50.43 223.941 50.69C224.041 50.7967 224.091 50.8933 224.091 50.98C224.091 51.0467 224.058 51.1133 223.991 51.18C223.925 51.2467 223.851 51.28 223.771 51.28C223.705 51.28 223.648 51.2567 223.601 51.21C223.488 51.07 223.345 50.9467 223.171 50.84C222.998 50.7267 222.805 50.64 222.591 50.58C222.385 50.52 222.168 50.49 221.941 50.49C221.628 50.49 221.345 50.54 221.091 50.64C220.845 50.7333 220.648 50.87 220.501 51.05C220.361 51.23 220.291 51.4467 220.291 51.7C220.291 51.98 220.371 52.21 220.531 52.39C220.691 52.57 220.901 52.72 221.161 52.84C221.421 52.9533 221.698 53.06 221.991 53.16C222.278 53.24 222.551 53.3333 222.811 53.44C223.078 53.54 223.311 53.6667 223.511 53.82C223.718 53.9733 223.878 54.1667 223.991 54.4C224.111 54.6333 224.171 54.9267 224.171 55.28C224.171 55.62 224.075 55.9267 223.881 56.2C223.688 56.4733 223.421 56.69 223.081 56.85C222.748 57.01 222.355 57.0933 221.901 57.1Z" fill="black"/>
</svg>
